<svg width="797.777" height="208.201" viewBox="0 0 797.777 208.201" xmlns="http://www.w3.org/2000/svg"><g id="svgGroup" stroke-linecap="round" fill-rule="evenodd" font-size="9pt" stroke="#000" stroke-width="0.25mm" fill="#000" style="stroke:#000;stroke-width:0.25mm;fill:#000"><path d="M 62.082 80.009 A 5.562 5.562 0 0 0 62.35 80.001 A 121.782 121.782 0 0 0 65.111 79.845 A 108.532 108.532 0 0 0 83.5 77.051 Q 93.55 74.601 101.95 70.301 Q 110.35 66.001 116.5 60.051 Q 122.65 54.101 126 46.751 A 36.367 36.367 0 0 0 127.223 43.713 A 38.701 38.701 0 0 0 129.35 30.801 Q 129.35 23.701 126.75 18.151 Q 124.15 12.601 119.1 8.601 A 30.922 30.922 0 0 0 113.043 4.887 A 41.471 41.471 0 0 0 106.55 2.501 A 46.851 46.851 0 0 0 106.05 2.364 Q 98.728 0.401 89.35 0.401 Q 81.25 0.401 73.2 1.701 Q 65.15 3.001 57.6 5.701 Q 50.05 8.401 43.25 12.551 Q 36.45 16.701 30.65 22.401 Q 29.198 23.852 29.198 25.21 A 2.534 2.534 0 0 0 29.2 25.301 A 3.432 3.432 0 0 0 29.589 26.781 A 4.167 4.167 0 0 0 30.35 27.801 A 8.23 8.23 0 0 0 30.924 28.361 Q 32.037 29.342 33.15 29.501 Q 34.55 29.701 36.25 28.001 Q 43.35 21.301 51.75 17.051 Q 60.15 12.801 69.5 10.751 Q 78.85 8.701 88.55 8.701 A 72.797 72.797 0 0 1 88.666 8.701 Q 95.996 8.713 101.8 10.201 A 35.696 35.696 0 0 1 106.653 11.805 A 26.281 26.281 0 0 1 111.7 14.551 Q 115.75 17.401 117.9 21.601 A 18.829 18.829 0 0 1 119.461 25.877 A 23.144 23.144 0 0 1 120.05 31.201 Q 120.05 38.301 117.2 44.451 A 34.793 34.793 0 0 1 116.548 45.782 A 36.687 36.687 0 0 1 109.15 55.551 A 47.675 47.675 0 0 1 105.993 58.3 A 54.282 54.282 0 0 1 96.95 64.101 A 62.995 62.995 0 0 1 92.433 66.199 A 72.819 72.819 0 0 1 81.5 69.751 A 80.372 80.372 0 0 1 79.107 70.293 A 88.249 88.249 0 0 1 63.75 72.101 Q 61.85 72.201 60.8 73.251 A 5.031 5.031 0 0 0 59.857 74.572 A 6.537 6.537 0 0 0 59.35 76.001 Q 59.106 77.22 59.308 78.086 A 2.511 2.511 0 0 0 59.75 79.051 Q 60.489 80.021 62.082 80.009 Z M 34.15 104.201 L 60.15 23.701 A 4.011 4.011 0 0 1 60.773 22.553 A 3.452 3.452 0 0 1 61.85 21.651 A 4.534 4.534 0 0 1 62.842 21.268 Q 63.825 21.005 65.206 21.001 A 14.775 14.775 0 0 1 65.25 21.001 A 12.014 12.014 0 0 1 66.414 21.053 Q 67.58 21.167 68.302 21.529 A 2.778 2.778 0 0 1 68.6 21.701 A 1.509 1.509 0 0 1 69.297 22.821 Q 69.352 23.278 69.191 23.861 A 4.405 4.405 0 0 1 69.15 24.001 L 43.05 104.801 A 94.368 94.368 0 0 1 40.668 111.399 Q 39.36 114.618 37.934 117.318 A 49.686 49.686 0 0 1 36.8 119.351 A 33.197 33.197 0 0 1 33.84 123.617 Q 32.007 125.84 29.958 127.389 A 19.15 19.15 0 0 1 28.95 128.101 A 17.641 17.641 0 0 1 20.081 130.966 A 21.608 21.608 0 0 1 18.85 131.001 A 17.644 17.644 0 0 1 13.475 130.202 A 15.77 15.77 0 0 1 10.4 128.851 Q 6.65 126.701 4.1 122.951 A 27.352 27.352 0 0 1 0.83 116.308 A 32.062 32.062 0 0 1 0.25 114.401 Q -0.25 112.401 0.25 111.151 A 2.68 2.68 0 0 1 1.144 110.01 Q 1.703 109.583 2.55 109.301 A 9.319 9.319 0 0 1 3.323 109.078 Q 4.443 108.809 5.239 108.967 A 2.363 2.363 0 0 1 5.8 109.151 A 2.697 2.697 0 0 1 6.75 109.932 Q 7.035 110.292 7.263 110.777 A 6.594 6.594 0 0 1 7.55 111.501 A 31.425 31.425 0 0 0 8.681 114.366 Q 9.327 115.783 10.059 116.944 A 16.836 16.836 0 0 0 10.6 117.751 A 14.093 14.093 0 0 0 12.208 119.646 Q 13.291 120.704 14.5 121.351 Q 16.65 122.501 19.25 122.501 A 10.113 10.113 0 0 0 26.503 119.473 A 14.34 14.34 0 0 0 27.5 118.401 Q 30.345 115.02 33.019 107.561 A 94.835 94.835 0 0 0 34.15 104.201 Z" id="0" vector-effect="non-scaling-stroke"/><path d="M 117.85 113.701 L 128.55 80.901 Q 129.15 78.901 130.1 78.301 Q 130.961 77.757 132.686 77.706 A 12.379 12.379 0 0 1 133.05 77.701 Q 136.026 77.701 136.928 78.576 A 1.463 1.463 0 0 1 137 78.651 A 1.803 1.803 0 0 1 137.429 79.563 Q 137.547 80.237 137.287 81.167 A 7.135 7.135 0 0 1 137.15 81.601 L 125.35 117.801 A 17.573 17.573 0 0 0 125.022 118.893 Q 124.604 120.489 124.732 121.493 A 2.881 2.881 0 0 0 124.8 121.851 Q 125.15 123.201 126.85 123.201 A 4.421 4.421 0 0 0 129.012 122.63 A 5.255 5.255 0 0 0 129.15 122.551 A 8.259 8.259 0 0 0 130.305 121.719 A 11.162 11.162 0 0 0 131.3 120.751 A 41.927 41.927 0 0 0 132.632 119.216 A 51.206 51.206 0 0 0 133.45 118.201 A 3.848 3.848 0 0 1 134.161 117.489 A 3.085 3.085 0 0 1 135.1 117.001 A 1.509 1.509 0 0 1 135.557 116.932 Q 136.35 116.932 137.35 117.701 A 7.324 7.324 0 0 1 138.083 118.188 Q 139.086 118.955 139.2 119.751 Q 139.323 120.614 138.94 121.443 A 3.773 3.773 0 0 1 138.75 121.801 Q 137.25 124.401 135.15 126.451 Q 133.05 128.501 130.55 129.651 Q 128.05 130.801 125.15 130.801 A 13.211 13.211 0 0 1 122.199 130.496 Q 120.399 130.083 119.14 129.11 A 6.769 6.769 0 0 1 117.05 126.351 Q 115.455 122.615 117.102 116.236 A 40.475 40.475 0 0 1 117.85 113.701 Z M 139.25 62.301 Q 137.25 62.301 135.8 61.001 Q 134.418 59.762 134.353 57.434 A 8.334 8.334 0 0 1 134.35 57.201 Q 134.35 54.501 136.15 52.101 A 5.78 5.78 0 0 1 139.621 49.912 A 9.157 9.157 0 0 1 141.65 49.701 Q 143.65 49.701 145.1 50.951 A 3.915 3.915 0 0 1 146.273 52.784 Q 146.478 53.437 146.532 54.232 A 8.543 8.543 0 0 1 146.55 54.801 A 8.288 8.288 0 0 1 145.281 59.182 A 10.479 10.479 0 0 1 144.8 59.901 Q 143.106 62.224 139.493 62.298 A 11.725 11.725 0 0 1 139.25 62.301 Z" id="1" vector-effect="non-scaling-stroke"/><path d="M 204.272 117.835 A 7.324 7.324 0 0 0 204.05 117.701 A 7.191 7.191 0 0 0 203.859 117.569 Q 202.901 116.93 202.188 116.932 A 1.388 1.388 0 0 0 201.75 117.001 A 3.031 3.031 0 0 0 200.776 117.548 A 4.115 4.115 0 0 0 200.15 118.201 Q 199.15 119.501 198.05 120.651 A 12.961 12.961 0 0 1 197.078 121.571 A 10.047 10.047 0 0 1 195.8 122.501 Q 194.65 123.201 193.35 123.201 Q 192.25 123.201 191.8 122.551 A 1.61 1.61 0 0 1 191.685 122.357 Q 191.371 121.732 191.5 120.701 A 14.479 14.479 0 0 1 191.534 120.444 Q 191.615 119.882 191.748 119.256 A 25.174 25.174 0 0 1 192.05 118.001 L 198.85 97.701 A 44.477 44.477 0 0 0 199.443 95.783 Q 200.888 90.693 200.55 86.851 A 13.561 13.561 0 0 0 199.988 83.935 A 9.235 9.235 0 0 0 197.4 79.801 A 8.282 8.282 0 0 0 195.363 78.449 Q 192.942 77.301 189.35 77.301 Q 186.25 77.301 183.15 78.301 Q 180.05 79.301 177.1 81.251 A 34.864 34.864 0 0 0 174.902 82.833 A 41.833 41.833 0 0 0 171.3 86.001 A 46.191 46.191 0 0 0 169.096 88.326 A 56.705 56.705 0 0 0 165.75 92.501 L 166.75 89.301 Q 167.05 87.101 166.9 85.001 A 11.566 11.566 0 0 0 166.799 84.086 A 9.651 9.651 0 0 0 165.9 81.201 A 5.828 5.828 0 0 0 164.842 79.718 A 6.82 6.82 0 0 0 163.2 78.501 Q 161.972 77.837 160.192 77.614 A 15.649 15.649 0 0 0 158.25 77.501 A 15.804 15.804 0 0 0 157.581 77.515 A 13.35 13.35 0 0 0 151.7 79.101 A 18.457 18.457 0 0 0 150.392 79.882 A 20.238 20.238 0 0 0 146.35 83.401 Q 143.95 86.101 142.05 89.401 Q 141.25 90.801 141.4 92.051 A 1.648 1.648 0 0 0 141.498 92.446 Q 141.77 93.155 142.714 93.701 A 6.485 6.485 0 0 0 143.55 94.101 A 7.762 7.762 0 0 0 144.062 94.263 Q 144.99 94.52 145.64 94.412 A 1.786 1.786 0 0 0 146.15 94.251 A 2.875 2.875 0 0 0 146.191 94.23 Q 147.073 93.771 148.05 92.501 Q 150.05 89.801 151.5 88.151 A 17.548 17.548 0 0 1 152.209 87.389 Q 153.272 86.315 154.25 85.751 Q 154.824 85.42 155.378 85.235 A 4.321 4.321 0 0 1 156.75 85.001 Q 157.198 85.001 157.555 85.098 A 1.676 1.676 0 0 1 158.65 85.951 Q 159.056 86.723 158.736 87.99 A 6.964 6.964 0 0 1 158.55 88.601 L 146.05 127.401 A 4.938 4.938 0 0 0 145.991 127.603 Q 145.523 129.339 146.8 130.001 Q 148.15 130.701 149.75 130.701 A 14.705 14.705 0 0 0 150.296 130.691 Q 152.179 130.621 153.1 130.051 A 3.181 3.181 0 0 0 154.038 129.169 A 3.765 3.765 0 0 0 154.55 128.101 L 159.65 112.301 A 92.772 92.772 0 0 1 161.449 108.653 A 78.875 78.875 0 0 1 165.75 101.351 A 66.364 66.364 0 0 1 168.685 97.278 A 51.921 51.921 0 0 1 172.6 92.801 Q 176.15 89.201 179.6 87.201 A 19.724 19.724 0 0 1 180.112 86.914 Q 183.281 85.201 186.15 85.201 Q 188.002 85.201 189.225 85.658 A 4.008 4.008 0 0 1 190.5 86.401 A 3.987 3.987 0 0 1 191.696 88.328 A 5.641 5.641 0 0 1 191.9 89.751 A 9.824 9.824 0 0 1 191.903 89.979 Q 191.903 91.276 191.57 92.835 A 22.527 22.527 0 0 1 191.05 94.801 L 184.75 113.501 Q 183.75 116.401 183.25 119.401 Q 183.01 120.842 183.012 122.19 A 13.649 13.649 0 0 0 183.3 125.001 Q 183.85 127.601 185.85 129.201 A 5.151 5.151 0 0 0 185.914 129.251 Q 187.915 130.801 191.95 130.801 A 14.24 14.24 0 0 0 192.805 130.776" id="2" vector-effect="non-scaling-stroke"/><path d="M 213.35 127.401 L 248.75 18.501 A 67.62 67.62 0 0 1 250.438 13.954 Q 251.915 10.398 253.55 7.851 Q 255.909 4.177 258.844 2.272 A 13.348 13.348 0 0 1 259.45 1.901 Q 262.75 0.001 266.75 0.001 A 13.875 13.875 0 0 1 269.485 0.257 Q 271.345 0.631 272.8 1.551 A 9.657 9.657 0 0 1 276.15 5.191 A 11.997 11.997 0 0 1 276.55 6.001 A 14.236 14.236 0 0 1 277.555 9.338 Q 277.822 10.839 277.847 12.546 A 24.168 24.168 0 0 1 277.85 12.901 Q 277.85 16.435 276.803 20.88 A 55.774 55.774 0 0 1 276.3 22.851 Q 274.75 28.501 272 35.001 Q 269.25 41.501 265.5 48.401 Q 261.75 55.301 257.3 62.101 Q 252.85 68.901 247.9 75.201 Q 242.95 81.501 237.85 86.851 A 89.878 89.878 0 0 1 232.113 92.379 A 71.703 71.703 0 0 1 227.65 96.001 L 228.25 89.001 A 38.522 38.522 0 0 0 230.666 86.777 Q 231.907 85.54 233.238 84.036 A 82.949 82.949 0 0 0 235.1 81.851 Q 238.85 77.301 242.8 71.501 Q 246.75 65.701 250.55 59.251 Q 254.35 52.801 257.75 46.201 A 179.561 179.561 0 0 0 262.023 37.339 A 152.382 152.382 0 0 0 263.7 33.451 A 129.942 129.942 0 0 0 265.956 27.639 Q 266.988 24.766 267.75 22.151 A 48.224 48.224 0 0 0 268.604 18.805 Q 268.947 17.207 269.108 15.81 A 20.255 20.255 0 0 0 269.25 13.501 A 10.73 10.73 0 0 0 269.176 12.202 Q 269.067 11.313 268.8 10.601 Q 268.398 9.53 267.678 8.977 A 2.702 2.702 0 0 0 267.5 8.851 A 3.271 3.271 0 0 0 266.453 8.418 Q 266.02 8.317 265.517 8.303 A 5.943 5.943 0 0 0 265.35 8.301 Q 263.85 8.301 262.55 9.351 A 6.332 6.332 0 0 0 261.733 10.158 Q 260.828 11.213 259.9 13.001 Q 258.55 15.601 257.05 20.001 L 221.85 128.101 A 3.992 3.992 0 0 1 221.385 129.114 A 3.168 3.168 0 0 1 220.45 130.051 Q 219.45 130.701 217.15 130.701 Q 215.55 130.701 214.15 130.001 Q 212.75 129.301 213.35 127.401 Z M 228.65 108.301 L 227.75 108.301 L 229.85 103.001 A 65.468 65.468 0 0 0 236.702 101.397 A 56.516 56.516 0 0 0 239.2 100.601 A 43.573 43.573 0 0 0 243.763 98.746 A 34.34 34.34 0 0 0 246.9 97.051 A 29.114 29.114 0 0 0 249.361 95.377 Q 250.498 94.51 251.39 93.617 A 15.339 15.339 0 0 0 252.15 92.801 A 9.133 9.133 0 0 0 253.27 91.207 Q 253.904 90.043 254.023 88.852 A 5.549 5.549 0 0 0 254.05 88.301 Q 254.05 86.901 253.25 86.101 Q 252.588 85.438 251.376 85.324 A 5.627 5.627 0 0 0 250.85 85.301 Q 248.25 85.301 244.8 87.551 A 34.378 34.378 0 0 0 241.705 89.845 Q 239.666 91.529 237.5 93.751 Q 233.65 97.701 229.55 102.901 L 229.15 98.701 Q 232.65 92.401 237 87.601 Q 241.35 82.801 245.8 80.101 A 23.061 23.061 0 0 1 248.771 78.564 Q 251.522 77.401 253.95 77.401 A 9.601 9.601 0 0 1 256.907 77.837 A 7.849 7.849 0 0 1 260.15 79.851 A 8.209 8.209 0 0 1 262.339 84.112 A 11.814 11.814 0 0 1 262.55 86.401 Q 262.55 89.601 261.15 92.401 A 18.299 18.299 0 0 1 258.361 96.454 A 21.74 21.74 0 0 1 257.25 97.601 A 31.175 31.175 0 0 1 252.886 101.076 A 35.947 35.947 0 0 1 251.5 101.951 A 46.905 46.905 0 0 1 245.624 104.921 A 52.745 52.745 0 0 1 244.45 105.401 Q 240.65 106.901 236.65 107.901 A 139.394 139.394 0 0 0 237.589 110.994 Q 238.026 112.372 238.441 113.561 A 60.348 60.348 0 0 0 239.25 115.751 Q 240.395 118.662 241.449 120.297 A 11.829 11.829 0 0 0 241.55 120.451 Q 242.304 121.581 243.081 122.242 A 4.635 4.635 0 0 0 243.8 122.751 Q 244.95 123.401 246.25 123.401 A 4.546 4.546 0 0 0 247.562 123.191 Q 248.147 123.015 248.784 122.69 A 11.671 11.671 0 0 0 249.95 122.001 A 22.339 22.339 0 0 0 251.595 120.782 Q 252.444 120.096 253.362 119.244 A 48.111 48.111 0 0 0 254.65 118.001 A 5.195 5.195 0 0 1 255.296 117.491 Q 256.052 116.993 256.766 116.993 A 2.032 2.032 0 0 1 256.95 117.001 A 2.744 2.744 0 0 1 258.33 117.536 A 3.994 3.994 0 0 1 258.95 118.101 A 5.163 5.163 0 0 1 259.607 118.893 Q 259.969 119.439 260.11 120.012 A 3.127 3.127 0 0 1 260.15 120.201 Q 260.35 121.301 259.35 122.501 A 45.821 45.821 0 0 1 256.664 125.266 Q 253.778 127.979 251.2 129.251 Q 247.659 130.998 245.232 131.095 A 7.047 7.047 0 0 1 244.95 131.101 A 12.691 12.691 0 0 1 241.638 130.68 A 11.188 11.188 0 0 1 240 130.101 A 9.37 9.37 0 0 1 237.708 128.629 Q 236.831 127.877 236.018 126.863 A 16.176 16.176 0 0 1 235.85 126.651 A 18.461 18.461 0 0 1 234.504 124.632 Q 233.876 123.553 233.265 122.243 A 44.066 44.066 0 0 1 232.2 119.751 A 66.754 66.754 0 0 1 230.936 116.223 Q 229.803 112.785 228.65 108.301 Z M 204.272 117.835 A 54.738 54.738 0 0 0 205.85 116.251 A 96.569 96.569 0 0 0 208.485 113.383 Q 209.818 111.876 211.297 110.106 A 222.716 222.716 0 0 0 214.4 106.301 A 302.883 302.883 0 0 0 218.345 101.243 Q 220.085 98.966 221.986 96.405 A 597.525 597.525 0 0 0 225.95 91.001 Q 226.897 89.817 227.876 89.817 A 1.712 1.712 0 0 1 228.4 89.901 A 2.501 2.501 0 0 1 229.842 91.101 A 3.904 3.904 0 0 1 230.15 91.801 A 2.691 2.691 0 0 1 230.289 92.657 Q 230.289 93.801 229.35 95.101 Q 222.15 105.501 216.8 112.401 A 185.88 185.88 0 0 1 213.281 116.808 Q 211.678 118.75 210.22 120.386 A 79.574 79.574 0 0 1 207.45 123.351 A 51.386 51.386 0 0 1 205.028 125.658 Q 202.45 127.948 200.25 129.151 A 15.14 15.14 0 0 1 197.272 130.407 A 11.701 11.701 0 0 1 193.95 130.901 A 4.933 4.933 0 0 1 192.914 130.8 A 3.077 3.077 0 0 1 192.805 130.776" id="3" vector-effect="non-scaling-stroke"/><path d="M 326.85 101.201 L 348.65 34.001 A 108.049 108.049 0 0 1 351.418 26.35 Q 352.861 22.807 354.445 19.761 A 65.066 65.066 0 0 1 354.9 18.901 A 49.233 49.233 0 0 1 358.321 13.406 A 36.182 36.182 0 0 1 362.65 8.401 A 28.51 28.51 0 0 1 369.899 3.316 A 26.445 26.445 0 0 1 372.15 2.351 A 30.632 30.632 0 0 1 379.82 0.591 A 37.623 37.623 0 0 1 383.65 0.401 A 22.788 22.788 0 0 1 389.538 1.135 A 19.03 19.03 0 0 1 394.1 3.001 A 20.357 20.357 0 0 1 400.471 8.777 A 24.904 24.904 0 0 1 401.65 10.551 A 28.13 28.13 0 0 1 404.301 16.417 Q 405.205 19.184 405.717 22.393 A 46.533 46.533 0 0 1 405.75 22.601 Q 406.013 24.442 405.507 25.553 A 2.816 2.816 0 0 1 405.35 25.851 Q 404.818 26.726 403.533 27.167 A 6.881 6.881 0 0 1 402.65 27.401 A 7.225 7.225 0 0 1 401.954 27.549 Q 401.043 27.695 400.334 27.532 A 2.723 2.723 0 0 1 399.6 27.251 Q 398.662 26.721 398.29 25.36 A 6.103 6.103 0 0 1 398.15 24.701 A 35.244 35.244 0 0 0 397.193 20.702 Q 396.586 18.716 395.777 17.074 A 18.646 18.646 0 0 0 395 15.651 Q 392.85 12.101 389.7 10.301 A 13.563 13.563 0 0 0 384.873 8.677 A 17.536 17.536 0 0 0 382.35 8.501 A 20.319 20.319 0 0 0 375.878 9.517 A 18.983 18.983 0 0 0 374.35 10.101 A 19.542 19.542 0 0 0 369.239 13.368 A 23.878 23.878 0 0 0 367.55 15.001 Q 364.45 18.301 361.85 23.251 Q 359.433 27.852 357.362 34.051 A 104.949 104.949 0 0 0 357.05 35.001 L 335.15 102.601 Q 332.623 110.334 329.657 115.868 A 48.694 48.694 0 0 1 327.8 119.051 Q 324.321 124.506 320.178 127.451 A 20.404 20.404 0 0 1 318.8 128.351 A 20.987 20.987 0 0 1 307.85 131.301 A 18.928 18.928 0 0 1 304.293 130.982 A 14.103 14.103 0 0 1 300.7 129.801 Q 297.65 128.301 295.9 125.501 A 11.578 11.578 0 0 1 294.181 120.043 A 14.191 14.191 0 0 1 294.15 119.101 A 16.043 16.043 0 0 1 294.859 114.263 A 14.097 14.097 0 0 1 296.3 111.101 Q 298.45 107.601 302.3 105.651 A 17.948 17.948 0 0 1 307.993 103.911 A 23.019 23.019 0 0 1 311.15 103.701 A 26.473 26.473 0 0 1 318.452 104.692 A 24.735 24.735 0 0 1 319.3 104.951 Q 323.15 106.201 326.85 108.251 Q 330.55 110.301 334.25 112.551 Q 337.95 114.801 341.9 116.851 Q 345.85 118.901 350.3 120.151 A 33.884 33.884 0 0 0 357.341 121.323 A 39.724 39.724 0 0 0 359.85 121.401 A 30.369 30.369 0 0 0 367.798 120.389 A 26.836 26.836 0 0 0 371.6 119.051 A 27.594 27.594 0 0 0 379.349 113.884 A 33.268 33.268 0 0 0 381.3 111.901 A 43.177 43.177 0 0 0 385.774 105.963 A 58.105 58.105 0 0 0 389.05 100.001 A 9.595 9.595 0 0 1 389.699 98.931 Q 390.07 98.406 390.47 98.024 A 4.119 4.119 0 0 1 391.3 97.401 A 2.162 2.162 0 0 1 392.23 97.134 Q 392.977 97.086 393.925 97.465 A 7.805 7.805 0 0 1 394.65 97.801 Q 396.45 98.701 396.8 100.151 A 3.34 3.34 0 0 1 396.891 100.914 Q 396.897 101.848 396.436 102.973 A 9.238 9.238 0 0 1 396.15 103.601 A 71.128 71.128 0 0 1 391.533 111.422 A 52.195 52.195 0 0 1 386.05 118.201 A 40.495 40.495 0 0 1 378.006 124.708 A 35.825 35.825 0 0 1 373.7 126.951 Q 366.95 129.901 358.65 129.901 A 41.527 41.527 0 0 1 350.047 129.036 A 36.232 36.232 0 0 1 346.35 128.051 A 61.663 61.663 0 0 1 337.144 124.243 A 55.999 55.999 0 0 1 335.75 123.501 Q 330.85 120.801 326.5 118.151 A 96.157 96.157 0 0 0 321.733 115.423 A 76.149 76.149 0 0 0 318.2 113.651 A 20.228 20.228 0 0 0 314.046 112.207 A 16.405 16.405 0 0 0 310.45 111.801 A 10.074 10.074 0 0 0 308.253 112.027 Q 306.731 112.367 305.604 113.218 A 6.19 6.19 0 0 0 305.2 113.551 A 5.78 5.78 0 0 0 303.281 117.494 A 8.025 8.025 0 0 0 303.25 118.201 Q 303.25 120.501 304.8 121.951 Q 306.35 123.401 308.75 123.401 A 11.166 11.166 0 0 0 315.279 121.246 Q 316.839 120.151 318.299 118.499 A 22.433 22.433 0 0 0 318.6 118.151 A 27.539 27.539 0 0 0 321.318 114.24 Q 323.827 109.947 326.109 103.403 A 108.017 108.017 0 0 0 326.85 101.201 Z" id="5" vector-effect="non-scaling-stroke"/><path d="M 427.495 119.72 A 1.58 1.58 0 0 0 427.383 119.345 Q 427.129 118.759 426.383 118.188 A 7.324 7.324 0 0 0 425.65 117.701 Q 424.65 116.932 423.857 116.932 A 1.509 1.509 0 0 0 423.4 117.001 A 3.085 3.085 0 0 0 422.461 117.489 A 3.848 3.848 0 0 0 421.75 118.201 A 51.206 51.206 0 0 1 420.932 119.216 A 41.927 41.927 0 0 1 419.6 120.751 A 11.162 11.162 0 0 1 418.605 121.719 A 8.259 8.259 0 0 1 417.45 122.551 A 5.255 5.255 0 0 1 417.312 122.63 A 4.421 4.421 0 0 1 415.15 123.201 Q 413.45 123.201 413.1 121.851 A 2.881 2.881 0 0 1 413.032 121.493 Q 412.904 120.489 413.322 118.893 A 17.573 17.573 0 0 1 413.65 117.801 L 425.45 81.601 A 7.135 7.135 0 0 0 425.587 81.167 Q 425.847 80.237 425.729 79.563 A 1.803 1.803 0 0 0 425.3 78.651 A 1.463 1.463 0 0 0 425.228 78.576 Q 424.326 77.701 421.35 77.701 A 12.379 12.379 0 0 0 420.986 77.706 Q 419.261 77.757 418.4 78.301 Q 417.45 78.901 416.85 80.901 L 406.15 113.701 A 40.475 40.475 0 0 0 405.402 116.236 Q 403.755 122.615 405.35 126.351 A 6.769 6.769 0 0 0 407.44 129.11 Q 408.699 130.083 410.499 130.496 A 13.211 13.211 0 0 0 413.438 130.801 M 427.55 62.301 Q 425.55 62.301 424.1 61.001 Q 422.718 59.762 422.653 57.434 A 8.334 8.334 0 0 1 422.65 57.201 Q 422.65 54.501 424.45 52.101 A 5.78 5.78 0 0 1 427.921 49.912 A 9.157 9.157 0 0 1 429.95 49.701 A 5.111 5.111 0 0 1 433.4 50.951 A 3.915 3.915 0 0 1 434.573 52.784 Q 434.778 53.437 434.832 54.232 A 8.543 8.543 0 0 1 434.85 54.801 A 8.288 8.288 0 0 1 433.581 59.182 A 10.479 10.479 0 0 1 433.1 59.901 Q 431.406 62.224 427.793 62.298 A 11.725 11.725 0 0 1 427.55 62.301 Z" id="6" vector-effect="non-scaling-stroke"/><path d="M 415.95 184.201 L 469.95 18.501 A 60.641 60.641 0 0 1 471.956 13.162 Q 474.269 7.839 477.091 4.823 A 16.858 16.858 0 0 1 477.55 4.351 A 14.958 14.958 0 0 1 482.8 0.909 A 14.467 14.467 0 0 1 487.95 0.001 A 13.019 13.019 0 0 1 490.734 0.284 A 9.366 9.366 0 0 1 494 1.651 A 9.485 9.485 0 0 1 496.951 4.883 A 12.379 12.379 0 0 1 497.7 6.451 Q 498.872 9.404 498.945 13.368 A 28.852 28.852 0 0 1 498.95 13.901 A 4.559 4.559 0 0 1 498.828 14.991 A 2.879 2.879 0 0 1 497.7 16.701 A 4.778 4.778 0 0 1 495.27 17.579 A 6.05 6.05 0 0 1 494.75 17.601 A 5.439 5.439 0 0 1 492.895 17.292 A 4.947 4.947 0 0 1 491.75 16.701 A 2.912 2.912 0 0 1 490.531 14.788 A 4.592 4.592 0 0 1 490.45 13.901 A 13.508 13.508 0 0 0 490.389 12.579 Q 490.294 11.613 490.05 10.851 A 4.653 4.653 0 0 0 489.651 9.934 A 3.303 3.303 0 0 0 488.8 8.951 Q 488.024 8.357 486.788 8.306 A 5.733 5.733 0 0 0 486.55 8.301 A 3.804 3.804 0 0 0 484.862 8.709 Q 484.327 8.971 483.8 9.401 Q 482.506 10.455 481.213 12.841 A 23.869 23.869 0 0 0 481.1 13.051 A 29.618 29.618 0 0 0 480.242 14.825 Q 479.312 16.907 478.316 19.807 A 93.728 93.728 0 0 0 478.25 20.001 L 450.35 106.201 A 64.864 64.864 0 0 1 451.865 112.881 A 82.566 82.566 0 0 1 452.65 118.601 Q 453.35 125.401 453.25 132.851 Q 453.15 140.301 452.4 147.901 Q 451.65 155.501 450.4 162.851 A 166.948 166.948 0 0 1 448.469 172.532 A 141.193 141.193 0 0 1 447.45 176.651 Q 445.75 183.101 443.85 188.301 Q 441.55 194.701 438.8 199.151 Q 436.05 203.601 432.5 205.901 A 14.372 14.372 0 0 1 425.484 208.165 A 17.654 17.654 0 0 1 424.35 208.201 A 12.658 12.658 0 0 1 421.353 207.861 A 10.017 10.017 0 0 1 418.6 206.751 A 8.631 8.631 0 0 1 415.463 203.498 A 11.172 11.172 0 0 1 414.9 202.351 A 12.907 12.907 0 0 1 414.137 199.802 Q 413.709 197.624 413.8 194.851 A 28.625 28.625 0 0 1 414.227 190.898 Q 414.562 188.976 415.151 186.84 A 58.027 58.027 0 0 1 415.95 184.201 Z M 427.495 119.72 A 43.204 43.204 0 0 0 429.989 118.172 A 52.388 52.388 0 0 0 432.15 116.651 Q 435.05 114.501 438.1 111.801 A 108.051 108.051 0 0 0 443.775 106.387 A 117.864 117.864 0 0 0 444.15 106.001 A 128.644 128.644 0 0 0 452.144 96.881 A 152.74 152.74 0 0 0 455.7 92.251 Q 461.35 84.601 466.55 76.101 Q 471.75 67.601 476.1 58.851 A 212.7 212.7 0 0 0 481.759 46.531 A 183.238 183.238 0 0 0 483.65 41.851 Q 486.85 33.601 488.65 26.401 Q 490.028 20.888 490.351 16.49 A 35.386 35.386 0 0 0 490.45 13.901 A 4.872 4.872 0 0 1 490.589 12.699 A 3.188 3.188 0 0 1 491.75 10.901 A 4.53 4.53 0 0 1 494.589 9.948 A 5.476 5.476 0 0 1 494.75 9.951 A 5.064 5.064 0 0 1 496.588 10.336 A 4.704 4.704 0 0 1 497.7 11.001 Q 498.95 12.001 498.95 13.901 Q 498.95 18.254 497.802 23.755 A 78.701 78.701 0 0 1 497.05 27.001 Q 495.15 34.501 491.75 43.201 A 189.079 189.079 0 0 1 486.191 55.965 A 219.95 219.95 0 0 1 483.65 61.101 Q 478.95 70.301 473.3 79.351 Q 467.65 88.401 461.3 96.601 A 156.021 156.021 0 0 1 453.265 106.187 A 131.709 131.709 0 0 1 448.35 111.301 Q 444.75 114.801 441.2 117.851 Q 437.65 120.901 434.1 123.301 A 66.145 66.145 0 0 1 429.721 126.027 A 55.258 55.258 0 0 1 427.15 127.401 A 40.634 40.634 0 0 1 423.081 129.176 A 33.239 33.239 0 0 1 420.55 130.001 A 24.563 24.563 0 0 1 416.879 130.749 A 20.035 20.035 0 0 1 414.45 130.901 A 4.851 4.851 0 0 1 413.581 130.829 A 2.846 2.846 0 0 1 413.438 130.801 M 445.45 121.201 L 424.55 185.801 A 75.199 75.199 0 0 0 423.607 188.918 Q 422.136 194.223 422.45 196.851 Q 422.814 199.9 425.249 200.174 A 4.481 4.481 0 0 0 425.75 200.201 A 4.39 4.39 0 0 0 428.128 199.497 A 5.259 5.259 0 0 0 428.2 199.451 A 6.562 6.562 0 0 0 429.134 198.701 Q 429.561 198.295 429.988 197.771 A 13.907 13.907 0 0 0 430.5 197.101 A 20.401 20.401 0 0 0 431.47 195.608 Q 431.948 194.803 432.426 193.86 A 38.328 38.328 0 0 0 432.8 193.101 Q 433.725 191.17 434.748 188.656 A 122.683 122.683 0 0 0 435.25 187.401 Q 436.85 183.301 438.3 178.201 Q 439.75 173.101 441.05 167.301 Q 442.35 161.501 443.35 155.451 Q 444.35 149.401 444.95 143.351 Q 445.55 137.301 445.75 131.701 A 88.072 88.072 0 0 0 445.807 128.558 Q 445.807 124.701 445.45 121.201 Z M 469.15 112.401 Q 464.95 113.101 460.9 113.201 A 46.507 46.507 0 0 1 459.752 113.215 Q 456.336 113.215 453.25 112.701 Q 449.65 112.101 446.35 110.801 Q 445.493 110.515 445.407 109.368 A 3.348 3.348 0 0 1 445.4 109.251 A 5.238 5.238 0 0 1 445.396 109.041 Q 445.396 108.354 445.574 107.623 A 7.896 7.896 0 0 1 445.9 106.601 A 5.066 5.066 0 0 1 446.575 105.38 A 4.168 4.168 0 0 1 447.55 104.451 Q 448.6 103.735 450.015 104.34 A 4.599 4.599 0 0 1 450.15 104.401 Q 452.35 105.401 454.95 105.851 A 26.549 26.549 0 0 0 457.432 106.155 Q 459.035 106.278 460.85 106.251 Q 463.686 106.208 467.187 105.833 A 100.212 100.212 0 0 0 468.35 105.701 Q 469.064 105.606 469.608 105.76 A 1.954 1.954 0 0 1 470.6 106.401 Q 471.35 107.301 471.4 108.601 A 5.173 5.173 0 0 1 471.404 108.8 A 4.524 4.524 0 0 1 470.85 111.001 A 3.113 3.113 0 0 1 470.255 111.787 A 2.576 2.576 0 0 1 469.15 112.401 Z" id="7" vector-effect="non-scaling-stroke"/><path d="M 493.81 130.538 A 18.799 18.799 0 0 0 498.05 131.001 Q 501.95 131.001 505.75 129.951 Q 509.55 128.901 513.2 126.601 A 29.707 29.707 0 0 0 516.827 123.889 A 39.886 39.886 0 0 0 520.35 120.401 A 6.059 6.059 0 0 0 520.772 119.897 Q 521.614 118.765 521.45 117.701 A 3.498 3.498 0 0 0 521.369 117.32 Q 521.202 116.701 520.803 116.105 A 6.047 6.047 0 0 0 520.05 115.201 Q 519.05 114.101 517.6 113.851 Q 516.549 113.67 515.577 114.303 A 4.534 4.534 0 0 0 514.85 114.901 Q 512.65 117.001 510.15 118.901 A 26.812 26.812 0 0 1 508.736 119.906 A 22.671 22.671 0 0 1 505.05 121.901 Q 502.45 123.001 499.75 123.001 A 12.875 12.875 0 0 1 498.635 122.953 A 10.569 10.569 0 0 1 494.7 121.851 A 11.609 11.609 0 0 1 493.676 121.26 A 12.499 12.499 0 0 1 490.75 118.601 A 13.686 13.686 0 0 1 489.631 116.995 A 15.788 15.788 0 0 1 488.15 113.651 A 18.514 18.514 0 0 1 487.567 111.244 A 22.421 22.421 0 0 1 487.25 107.401 Q 487.25 104.201 488.1 100.401 Q 488.95 96.601 490.55 93.201 A 21.385 21.385 0 0 1 491.635 91.176 A 17.201 17.201 0 0 1 494.55 87.551 A 10.052 10.052 0 0 1 494.71 87.404 A 7.771 7.771 0 0 1 500.05 85.301 A 7.679 7.679 0 0 1 500.467 85.312 Q 501.193 85.351 501.794 85.532 A 3.62 3.62 0 0 1 503.6 86.701 Q 504.391 87.663 504.638 89.193 A 9.473 9.473 0 0 1 504.75 90.701 A 12.678 12.678 0 0 1 504.086 94.686 A 17.081 17.081 0 0 1 502.65 97.851 A 30.325 30.325 0 0 1 500.729 100.775 A 36.96 36.96 0 0 1 497.15 104.901 Q 493.75 108.301 489.95 111.201 Q 485.45 114.701 480.4 117.451 A 66.713 66.713 0 0 1 477.258 119.057 A 56.442 56.442 0 0 1 470.45 121.801 Q 467.847 122.651 465.498 123.049 A 23.634 23.634 0 0 1 461.55 123.401 Q 460.697 123.401 460.001 123.591 A 3.746 3.746 0 0 0 458.3 124.551 A 5.581 5.581 0 0 0 457.933 124.955 A 4.347 4.347 0 0 0 456.95 127.151 Q 456.903 127.492 456.903 127.817 A 3.863 3.863 0 0 0 457.4 129.751 Q 457.829 130.51 458.585 130.768 A 2.665 2.665 0 0 0 459.45 130.901 A 28.867 28.867 0 0 0 460.144 130.892 Q 464.765 130.781 470.25 129.201 A 64.479 64.479 0 0 0 474.025 127.984 Q 478.058 126.548 482.204 124.498 A 85.653 85.653 0 0 0 482.3 124.451 Q 488.45 121.401 493.95 117.401 Q 499.25 113.601 503.75 108.951 A 49.702 49.702 0 0 0 505.891 106.595 A 42.094 42.094 0 0 0 511 99.151 A 25.879 25.879 0 0 0 511.935 97.214 A 21.313 21.313 0 0 0 513.75 88.701 A 14.611 14.611 0 0 0 513.585 86.464 A 11.214 11.214 0 0 0 512.35 82.751 Q 510.95 80.201 508.3 78.751 A 11.431 11.431 0 0 0 504.987 77.578 A 15.8 15.8 0 0 0 501.95 77.301 Q 497.05 77.301 493.25 79.201 Q 489.45 81.101 486.65 84.351 Q 483.85 87.601 482 91.601 Q 480.15 95.601 479.3 99.751 A 44.507 44.507 0 0 0 478.852 102.31 A 37.655 37.655 0 0 0 478.45 107.701 A 33.013 33.013 0 0 0 478.472 108.91 A 29.068 29.068 0 0 0 479.35 115.101 Q 480.25 118.601 481.95 121.501 A 22.4 22.4 0 0 0 481.963 121.524 A 20.057 20.057 0 0 0 486.05 126.501 Q 488.45 128.601 491.45 129.801 A 16.093 16.093 0 0 0 493.81 130.538 Z" id="8" vector-effect="non-scaling-stroke"/><path d="M 579.85 101.201 L 601.65 34.001 A 108.049 108.049 0 0 1 604.418 26.35 Q 605.861 22.807 607.445 19.761 A 65.066 65.066 0 0 1 607.9 18.901 A 49.233 49.233 0 0 1 611.321 13.406 A 36.182 36.182 0 0 1 615.65 8.401 A 28.51 28.51 0 0 1 622.899 3.316 A 26.445 26.445 0 0 1 625.15 2.351 A 30.632 30.632 0 0 1 632.82 0.591 A 37.623 37.623 0 0 1 636.65 0.401 A 22.788 22.788 0 0 1 642.538 1.135 A 19.03 19.03 0 0 1 647.1 3.001 A 20.357 20.357 0 0 1 653.471 8.777 A 24.904 24.904 0 0 1 654.65 10.551 A 28.13 28.13 0 0 1 657.301 16.417 Q 658.205 19.184 658.717 22.393 A 46.533 46.533 0 0 1 658.75 22.601 Q 659.013 24.442 658.507 25.553 A 2.816 2.816 0 0 1 658.35 25.851 Q 657.818 26.726 656.533 27.167 A 6.881 6.881 0 0 1 655.65 27.401 A 7.225 7.225 0 0 1 654.954 27.549 Q 654.043 27.695 653.334 27.532 A 2.723 2.723 0 0 1 652.6 27.251 Q 651.662 26.721 651.29 25.36 A 6.103 6.103 0 0 1 651.15 24.701 A 35.244 35.244 0 0 0 650.193 20.702 Q 649.586 18.716 648.777 17.074 A 18.646 18.646 0 0 0 648 15.651 Q 645.85 12.101 642.7 10.301 A 13.563 13.563 0 0 0 637.873 8.677 A 17.536 17.536 0 0 0 635.35 8.501 A 20.319 20.319 0 0 0 628.878 9.517 A 18.983 18.983 0 0 0 627.35 10.101 A 19.542 19.542 0 0 0 622.239 13.368 A 23.878 23.878 0 0 0 620.55 15.001 Q 617.45 18.301 614.85 23.251 Q 612.433 27.852 610.362 34.051 A 104.949 104.949 0 0 0 610.05 35.001 L 588.15 102.601 Q 585.623 110.334 582.657 115.868 A 48.694 48.694 0 0 1 580.8 119.051 Q 577.321 124.506 573.178 127.451 A 20.404 20.404 0 0 1 571.8 128.351 A 20.987 20.987 0 0 1 560.85 131.301 A 18.928 18.928 0 0 1 557.293 130.982 A 14.103 14.103 0 0 1 553.7 129.801 Q 550.65 128.301 548.9 125.501 A 11.578 11.578 0 0 1 547.181 120.043 A 14.191 14.191 0 0 1 547.15 119.101 A 16.043 16.043 0 0 1 547.859 114.263 A 14.097 14.097 0 0 1 549.3 111.101 Q 551.45 107.601 555.3 105.651 A 17.948 17.948 0 0 1 560.993 103.911 A 23.019 23.019 0 0 1 564.15 103.701 A 26.473 26.473 0 0 1 571.452 104.692 A 24.735 24.735 0 0 1 572.3 104.951 Q 576.15 106.201 579.85 108.251 Q 583.55 110.301 587.25 112.551 Q 590.95 114.801 594.9 116.851 Q 598.85 118.901 603.3 120.151 A 33.884 33.884 0 0 0 610.341 121.323 A 39.724 39.724 0 0 0 612.85 121.401 A 30.369 30.369 0 0 0 620.798 120.389 A 26.836 26.836 0 0 0 624.6 119.051 A 27.594 27.594 0 0 0 632.349 113.884 A 33.268 33.268 0 0 0 634.3 111.901 A 43.177 43.177 0 0 0 638.774 105.963 A 58.105 58.105 0 0 0 642.05 100.001 A 9.595 9.595 0 0 1 642.699 98.931 Q 643.07 98.406 643.47 98.024 A 4.119 4.119 0 0 1 644.3 97.401 A 2.162 2.162 0 0 1 645.23 97.134 Q 645.977 97.086 646.925 97.465 A 7.805 7.805 0 0 1 647.65 97.801 Q 649.45 98.701 649.8 100.151 A 3.34 3.34 0 0 1 649.891 100.914 Q 649.897 101.848 649.436 102.973 A 9.238 9.238 0 0 1 649.15 103.601 A 71.128 71.128 0 0 1 644.533 111.422 A 52.195 52.195 0 0 1 639.05 118.201 A 40.495 40.495 0 0 1 631.006 124.708 A 35.825 35.825 0 0 1 626.7 126.951 Q 619.95 129.901 611.65 129.901 A 41.527 41.527 0 0 1 603.047 129.036 A 36.232 36.232 0 0 1 599.35 128.051 A 61.663 61.663 0 0 1 590.144 124.243 A 55.999 55.999 0 0 1 588.75 123.501 Q 583.85 120.801 579.5 118.151 A 96.157 96.157 0 0 0 574.733 115.423 A 76.149 76.149 0 0 0 571.2 113.651 A 20.228 20.228 0 0 0 567.046 112.207 A 16.405 16.405 0 0 0 563.45 111.801 A 10.074 10.074 0 0 0 561.253 112.027 Q 559.731 112.367 558.604 113.218 A 6.19 6.19 0 0 0 558.2 113.551 A 5.78 5.78 0 0 0 556.281 117.494 A 8.025 8.025 0 0 0 556.25 118.201 Q 556.25 120.501 557.8 121.951 Q 559.35 123.401 561.75 123.401 A 11.166 11.166 0 0 0 568.279 121.246 Q 569.839 120.151 571.299 118.499 A 22.433 22.433 0 0 0 571.6 118.151 A 27.539 27.539 0 0 0 574.318 114.24 Q 576.827 109.947 579.109 103.403 A 108.017 108.017 0 0 0 579.85 101.201 Z" id="10" vector-effect="non-scaling-stroke"/><path d="M 659.15 113.701 L 669.85 80.901 Q 670.45 78.901 671.4 78.301 Q 672.261 77.757 673.986 77.706 A 12.379 12.379 0 0 1 674.35 77.701 Q 677.326 77.701 678.228 78.576 A 1.463 1.463 0 0 1 678.3 78.651 A 1.803 1.803 0 0 1 678.729 79.563 Q 678.847 80.237 678.587 81.167 A 7.135 7.135 0 0 1 678.45 81.601 L 666.65 117.801 A 17.573 17.573 0 0 0 666.322 118.893 Q 665.904 120.489 666.032 121.493 A 2.881 2.881 0 0 0 666.1 121.851 Q 666.45 123.201 668.15 123.201 A 4.421 4.421 0 0 0 670.312 122.63 A 5.255 5.255 0 0 0 670.45 122.551 A 8.259 8.259 0 0 0 671.605 121.719 A 11.162 11.162 0 0 0 672.6 120.751 A 41.927 41.927 0 0 0 673.932 119.216 A 51.206 51.206 0 0 0 674.75 118.201 A 3.848 3.848 0 0 1 675.461 117.489 A 3.085 3.085 0 0 1 676.4 117.001 A 1.509 1.509 0 0 1 676.857 116.932 Q 677.65 116.932 678.65 117.701 A 7.324 7.324 0 0 1 679.383 118.188 Q 680.386 118.955 680.5 119.751 Q 680.623 120.614 680.24 121.443 A 3.773 3.773 0 0 1 680.05 121.801 Q 678.55 124.401 676.45 126.451 Q 674.35 128.501 671.85 129.651 Q 669.35 130.801 666.45 130.801 A 13.211 13.211 0 0 1 663.499 130.496 Q 661.699 130.083 660.44 129.11 A 6.769 6.769 0 0 1 658.35 126.351 Q 656.755 122.615 658.402 116.236 A 40.475 40.475 0 0 1 659.15 113.701 Z M 680.55 62.301 Q 678.55 62.301 677.1 61.001 Q 675.718 59.762 675.653 57.434 A 8.334 8.334 0 0 1 675.65 57.201 Q 675.65 54.501 677.45 52.101 A 5.78 5.78 0 0 1 680.921 49.912 A 9.157 9.157 0 0 1 682.95 49.701 Q 684.95 49.701 686.4 50.951 A 3.915 3.915 0 0 1 687.573 52.784 Q 687.778 53.437 687.832 54.232 A 8.543 8.543 0 0 1 687.85 54.801 A 8.288 8.288 0 0 1 686.581 59.182 A 10.479 10.479 0 0 1 686.1 59.901 Q 684.406 62.224 680.793 62.298 A 11.725 11.725 0 0 1 680.55 62.301 Z" id="11" vector-effect="non-scaling-stroke"/><path d="M 746.75 121.801 A 3.773 3.773 0 0 0 746.94 121.443 Q 747.323 120.614 747.2 119.751 Q 747.086 118.955 746.083 118.188 A 7.324 7.324 0 0 0 745.35 117.701 A 7.191 7.191 0 0 0 745.159 117.569 Q 744.201 116.93 743.488 116.932 A 1.388 1.388 0 0 0 743.05 117.001 A 3.031 3.031 0 0 0 742.076 117.548 A 4.115 4.115 0 0 0 741.45 118.201 Q 740.45 119.501 739.35 120.651 A 12.961 12.961 0 0 1 738.378 121.571 A 10.047 10.047 0 0 1 737.1 122.501 Q 735.95 123.201 734.65 123.201 Q 733.55 123.201 733.1 122.551 A 1.61 1.61 0 0 1 732.985 122.357 Q 732.671 121.732 732.8 120.701 A 14.479 14.479 0 0 1 732.834 120.444 Q 732.915 119.882 733.048 119.256 A 25.174 25.174 0 0 1 733.35 118.001 L 740.15 97.701 A 44.477 44.477 0 0 0 740.743 95.783 Q 742.188 90.693 741.85 86.851 A 13.561 13.561 0 0 0 741.288 83.935 A 9.235 9.235 0 0 0 738.7 79.801 A 8.282 8.282 0 0 0 736.663 78.449 Q 734.242 77.301 730.65 77.301 Q 727.55 77.301 724.45 78.301 Q 721.35 79.301 718.4 81.251 A 34.864 34.864 0 0 0 716.202 82.833 A 41.833 41.833 0 0 0 712.6 86.001 A 46.191 46.191 0 0 0 710.396 88.326 A 56.705 56.705 0 0 0 707.05 92.501 L 708.05 89.301 Q 708.35 87.101 708.2 85.001 A 11.566 11.566 0 0 0 708.099 84.086 A 9.651 9.651 0 0 0 707.2 81.201 A 5.828 5.828 0 0 0 706.142 79.718 A 6.82 6.82 0 0 0 704.5 78.501 Q 703.272 77.837 701.492 77.614 A 15.649 15.649 0 0 0 699.55 77.501 A 15.804 15.804 0 0 0 698.881 77.515 A 13.35 13.35 0 0 0 693 79.101 A 18.457 18.457 0 0 0 691.692 79.882 A 20.238 20.238 0 0 0 687.65 83.401 Q 685.25 86.101 683.35 89.401 Q 682.55 90.801 682.7 92.051 A 1.648 1.648 0 0 0 682.798 92.446 Q 683.07 93.155 684.014 93.701 A 6.485 6.485 0 0 0 684.85 94.101 A 7.762 7.762 0 0 0 685.362 94.263 Q 686.29 94.52 686.94 94.412 A 1.786 1.786 0 0 0 687.45 94.251 A 2.875 2.875 0 0 0 687.491 94.23 Q 688.373 93.771 689.35 92.501 Q 691.35 89.801 692.8 88.151 A 17.548 17.548 0 0 1 693.509 87.389 Q 694.572 86.315 695.55 85.751 Q 696.124 85.42 696.678 85.235 A 4.321 4.321 0 0 1 698.05 85.001 Q 698.498 85.001 698.855 85.098 A 1.676 1.676 0 0 1 699.95 85.951 Q 700.356 86.723 700.036 87.99 A 6.964 6.964 0 0 1 699.85 88.601 L 687.35 127.401 A 4.938 4.938 0 0 0 687.291 127.603 Q 686.823 129.339 688.1 130.001 Q 689.45 130.701 691.05 130.701 A 14.705 14.705 0 0 0 691.596 130.691 Q 693.479 130.621 694.4 130.051 A 3.181 3.181 0 0 0 695.338 129.169 A 3.765 3.765 0 0 0 695.85 128.101 L 700.95 112.301 A 92.772 92.772 0 0 1 702.749 108.653 A 78.875 78.875 0 0 1 707.05 101.351 A 66.364 66.364 0 0 1 709.985 97.278 A 51.921 51.921 0 0 1 713.9 92.801 Q 717.45 89.201 720.9 87.201 A 19.724 19.724 0 0 1 721.412 86.914 Q 724.581 85.201 727.45 85.201 Q 729.302 85.201 730.525 85.658 A 4.008 4.008 0 0 1 731.8 86.401 A 3.987 3.987 0 0 1 732.996 88.328 A 5.641 5.641 0 0 1 733.2 89.751 A 9.824 9.824 0 0 1 733.203 89.979 Q 733.203 91.276 732.87 92.835 A 22.527 22.527 0 0 1 732.35 94.801 L 726.05 113.501 Q 725.05 116.401 724.55 119.401 Q 724.31 120.842 724.312 122.19 A 13.649 13.649 0 0 0 724.6 125.001 Q 725.15 127.601 727.15 129.201 A 5.151 5.151 0 0 0 727.214 129.251 Q 729.215 130.801 733.25 130.801 A 14.24 14.24 0 0 0 734.295 130.763 A 11.745 11.745 0 0 0 734.767 130.723" id="12" vector-effect="non-scaling-stroke"/><path d="M 746.75 121.801 A 56.442 56.442 0 0 0 753.558 119.057 A 66.713 66.713 0 0 0 756.7 117.451 Q 761.75 114.701 766.25 111.201 Q 770.05 108.301 773.45 104.901 A 36.96 36.96 0 0 0 777.029 100.775 A 30.325 30.325 0 0 0 778.95 97.851 A 17.081 17.081 0 0 0 780.386 94.686 A 12.678 12.678 0 0 0 781.05 90.701 A 9.473 9.473 0 0 0 780.938 89.193 Q 780.691 87.663 779.9 86.701 A 3.62 3.62 0 0 0 778.094 85.532 Q 777.493 85.351 776.767 85.312 A 7.679 7.679 0 0 0 776.35 85.301 A 7.771 7.771 0 0 0 771.01 87.404 A 10.052 10.052 0 0 0 770.85 87.551 A 17.201 17.201 0 0 0 767.935 91.176 A 21.385 21.385 0 0 0 766.85 93.201 Q 765.25 96.601 764.4 100.401 Q 763.55 104.201 763.55 107.401 A 22.421 22.421 0 0 0 763.867 111.244 A 18.514 18.514 0 0 0 764.45 113.651 A 15.788 15.788 0 0 0 765.931 116.995 A 13.686 13.686 0 0 0 767.05 118.601 A 12.499 12.499 0 0 0 769.976 121.26 A 11.609 11.609 0 0 0 771 121.851 A 10.569 10.569 0 0 0 774.935 122.953 A 12.875 12.875 0 0 0 776.05 123.001 Q 778.75 123.001 781.35 121.901 A 22.671 22.671 0 0 0 785.036 119.906 A 26.812 26.812 0 0 0 786.45 118.901 Q 788.95 117.001 791.15 114.901 A 4.534 4.534 0 0 1 791.877 114.303 Q 792.849 113.67 793.9 113.851 Q 795.35 114.101 796.35 115.201 A 6.047 6.047 0 0 1 797.103 116.105 Q 797.502 116.701 797.669 117.32 A 3.498 3.498 0 0 1 797.75 117.701 Q 797.914 118.765 797.072 119.897 A 6.059 6.059 0 0 1 796.65 120.401 A 39.886 39.886 0 0 1 793.127 123.889 A 29.707 29.707 0 0 1 789.5 126.601 Q 785.85 128.901 782.05 129.951 Q 778.25 131.001 774.35 131.001 A 18.799 18.799 0 0 1 770.11 130.538 A 16.093 16.093 0 0 1 767.75 129.801 Q 764.75 128.601 762.35 126.501 A 20.057 20.057 0 0 1 758.263 121.524 A 22.4 22.4 0 0 1 758.25 121.501 Q 756.55 118.601 755.65 115.101 A 29.068 29.068 0 0 1 754.772 108.91 A 33.013 33.013 0 0 1 754.75 107.701 A 37.655 37.655 0 0 1 755.152 102.31 A 44.507 44.507 0 0 1 755.6 99.751 Q 756.45 95.601 758.3 91.601 Q 760.15 87.601 762.95 84.351 Q 765.75 81.101 769.55 79.201 Q 773.35 77.301 778.25 77.301 A 15.8 15.8 0 0 1 781.287 77.578 A 11.431 11.431 0 0 1 784.6 78.751 Q 787.25 80.201 788.65 82.751 A 11.214 11.214 0 0 1 789.885 86.464 A 14.611 14.611 0 0 1 790.05 88.701 A 21.313 21.313 0 0 1 788.235 97.214 A 25.879 25.879 0 0 1 787.3 99.151 A 42.094 42.094 0 0 1 782.191 106.595 A 49.702 49.702 0 0 1 780.05 108.951 Q 775.55 113.601 770.25 117.401 Q 764.75 121.401 758.6 124.451 A 85.653 85.653 0 0 1 758.504 124.498 Q 754.358 126.548 750.325 127.984 A 64.479 64.479 0 0 1 746.55 129.201 Q 741.065 130.781 736.444 130.892 A 28.867 28.867 0 0 1 735.75 130.901 A 2.665 2.665 0 0 1 734.885 130.768 A 2.114 2.114 0 0 1 734.767 130.723" id="13" vector-effect="non-scaling-stroke"/></g></svg>