<?xml version="1.0" encoding="utf-8"?>
<svg viewBox="14.7885 6.6401 465.2975 104.4883" width="465.297" height="104.488" xmlns="http://www.w3.org/2000/svg">
  <path d="M 27.266 109.274 L 151.113 96.38 L 228.519 89.933 L 342.046 81.141 L 466.54 70.007 L 480.086 71.764 L 475.57 82.314 L 450.413 84.071 L 398.165 87.589 L 337.531 90.519 C 317.32 92.473 311.556 93.176 295.602 94.035 C 277.345 95.018 262.295 95.799 240.13 97.553 C 226.834 98.605 208.236 100.22 194.976 101.655 C 167.299 104.653 131.976 105.023 104.025 107.516 C 78.172 109.823 53.446 111.775 27.266 109.274 Z" style="fill: rgb(5, 5, 5); fill-opacity: 0.74;" transform="matrix(1, 0, 0, 1, 7.105427357601002e-15, 7.105427357601002e-15)"/>
  <g transform="matrix(0.10000000149011612, 0, 0, -0.10000000149011612, 13.788488593526026, 111.57209944087413)" fill="#000000" stroke="none" style="">
    <path d="M2164 1031 c-37 -17 -44 -27 -82 -112 -72 -167 -115 -325 -142 -527&#10;-10 -71 -17 -95 -31 -103 -16 -8 -38 -74 -27 -84 2 -2 24 5 48 16 118 53 266&#10;66 358 31 35 -13 52 -16 52 -9 -1 52 -141 103 -264 95 l-66 -4 0 42 c0 75 56&#10;267 134 460 42 104 79 195 82 202 8 17 -14 15 -62 -7z" style="fill: rgb(248, 24, 154);"/>
    <path d="M3510 1032 c-27 -13 -43 -33 -72 -92 -69 -141 -136 -381 -154 -553&#10;-5 -51 -13 -76 -30 -97 -14 -16 -24 -41 -24 -58 l0 -31 53 23 c138 61 265 64&#10;390 11 23 -10 23 17 -1 38 -47 43 -114 61 -219 62 -120 0 -113 -12 -83 135 23&#10;113 77 275 149 445 28 65 51 123 51 127 0 12 -22 9 -60 -10z" style="fill: rgb(248, 24, 154);"/>
    <path d="M280 1024 c-71 -14 -270 -98 -270 -115 0 -5 9 -13 21 -19 16 -9 30&#10;-6 72 18 127 71 289 102 355 68 47 -24 65 -58 60 -111 -13 -115 -139 -250&#10;-260 -279 -16 -3 -28 -5 -28 -3 0 20 61 174 103 257 28 58 54 109 56 114 7 18&#10;-102 -1 -116 -20 -20 -27 -71 -166 -97 -263 -22 -80 -25 -86 -49 -86 -33 0&#10;-36 -18 -5 -26 17 -4 22 -12 21 -30 -1 -13 -5 -63 -9 -111 -6 -73 -4 -91 10&#10;-113 23 -35 36 -31 36 13 0 58 31 211 45 226 8 7 35 16 61 20 121 16 267 125&#10;319 238 43 93 29 155 -47 198 -37 21 -57 25 -148 26 -58 1 -116 0 -130 -2z" style="fill: rgb(248, 24, 154);"/>
    <path d="M2621 977 c-29 -14 -79 -114 -118 -238 -21 -66 -32 -89 -45 -89 -20&#10;0 -40 -32 -33 -52 8 -20 -114 -203 -127 -190 -13 13 5 124 38 237 13 44 24 83&#10;24 88 0 13 -58 7 -74 -8 -26 -26 -57 -145 -63 -241 -5 -84 -4 -93 16 -113 45&#10;-45 90 -20 155 87 21 35 40 62 41 60 2 -2 -7 -42 -20 -89 -79 -278 -69 -473&#10;21 -414 52 34 127 252 142 411 7 74 8 76 40 89 l32 14 -6 -37 c-9 -54 16 -108&#10;59 -128 68 -32 169 7 241 93 33 39 106 163 106 180 0 28 -19 10 -56 -52 -71&#10;-123 -204 -222 -249 -185 -21 17 -19 23 14 43 78 46 161 164 161 230 0 15 -9&#10;36 -21 48 -42 42 -144 -3 -201 -90 -32 -48 -82 -91 -106 -91 -7 0 -20 15 -29&#10;34 -15 33 -15 38 15 131 18 53 50 135 72 182 22 47 40 90 40 94 0 12 -40 10&#10;-69 -4z m233 -283 c21 -8 20 -49 -3 -99 -20 -44 -97 -135 -113 -135 -29 0 28&#10;169 74 217 24 26 21 25 42 17z m-304 -228 c0 -113 -88 -406 -122 -406 -28 0&#10;17 246 72 393 27 71 50 76 50 13z" style="fill: rgb(248, 24, 154);"/>
    <path d="M1388 958 c-37 -13 -77 -99 -117 -247 -17 -62 -37 -123 -44 -135 -38&#10;-58 -139 -176 -146 -172 -5 3 5 59 21 123 16 66 27 138 26 163 l-3 45 -43 3&#10;c-41 3 -47 0 -93 -46 l-49 -49 -6 49 c-6 40 -10 48 -28 48 -12 0 -32 -7 -44&#10;-16 -20 -14 -22 -22 -17 -55 6 -36 2 -48 -59 -143 -85 -133 -96 -143 -96 -85&#10;0 43 38 215 59 272 10 26 9 27 -18 27 -61 0 -93 -64 -113 -225 -13 -104 -2&#10;-143 44 -159 39 -14 69 10 127 106 58 93 67 81 27 -34 l-23 -68 31 0 c53 0 64&#10;16 91 130 9 41 28 93 41 115 28 50 72 97 84 90 4 -3 -1 -44 -12 -92 -10 -49&#10;-24 -117 -30 -152 -11 -61 -10 -65 11 -83 38 -30 69 -23 120 29 26 27 57 62&#10;69 78 l22 30 -2 -80 -3 -80 25 3 c39 5 50 24 61 98 16 112 29 145 82 197 27&#10;26 53 47 58 47 14 0 11 -58 -5 -88 -8 -15 -32 -38 -55 -52 -22 -14 -40 -29&#10;-40 -35 0 -17 73 -118 99 -137 14 -10 40 -21 57 -24 28 -6 37 -2 60 25 32 36&#10;152 240 153 259 1 31 -27 1 -72 -78 -56 -97 -94 -149 -114 -157 -20 -8 -54 25&#10;-74 72 l-17 39 31 16 c58 29 95 136 66 191 -8 14 -21 19 -52 19 -36 0 -47 -6&#10;-89 -49 -27 -26 -49 -42 -49 -35 0 20 47 164 79 243 32 77 30 82 -31 59z" style="fill: rgb(248, 24, 154);"/>
    <path d="M3637 728 c-37 -28 -85 -240 -71 -315 6 -34 36 -63 65 -63 28 0 65&#10;37 110 112 50 83 63 72 29 -26 -11 -33 -20 -63 -20 -68 0 -14 67 -9 79 6 6 8&#10;23 58 36 111 14 54 34 112 44 129 26 42 77 90 84 79 3 -5 -5 -56 -18 -114 -39&#10;-171 -40 -184 -16 -208 39 -39 73 -28 138 44 l58 64 13 -45 c33 -113 174 -109&#10;285 10 33 35 117 174 117 193 0 28 -19 10 -56 -52 -71 -123 -204 -222 -249&#10;-185 -21 17 -19 23 14 43 78 46 161 164 161 230 0 15 -9 36 -21 48 -42 42&#10;-141 -2 -200 -88 -50 -72 -156 -208 -175 -224 -15 -13 -16 -11 -11 21 3 19 16&#10;88 30 152 32 147 29 158 -31 158 -42 0 -50 -4 -93 -49 l-47 -49 -6 49 c-6 42&#10;-10 49 -29 49 -12 0 -33 -7 -45 -16 -19 -13 -21 -21 -16 -54 6 -35 1 -48 -55&#10;-138 -33 -54 -70 -107 -81 -117 -20 -18 -20 -18 -20 21 0 41 28 175 53 257&#10;l15 47 -27 0 c-15 0 -35 -6 -44 -12z m737 -34 c21 -8 20 -49 -3 -99 -20 -44&#10;-97 -135 -113 -135 -29 0 28 169 74 217 24 26 21 25 42 17z" style="fill: rgb(248, 24, 154);"/>
  </g>
  <ellipse style="stroke: rgba(0, 0, 0, 0); fill: rgb(248, 24, 154);" cx="88.224" cy="26.796" rx="4.449" ry="7.188" transform="matrix(1, 0, 0, 1, 7.105427357601002e-15, 7.105427357601002e-15)"/>
  <ellipse style="stroke: rgba(0, 0, 0, 0); fill: rgb(248, 24, 154);" cx="248.743" cy="25.77" rx="4.107" ry="8.214" transform="matrix(1, 0, 0, 1, 7.105427357601002e-15, 7.105427357601002e-15)"/>
  <ellipse style="paint-order: stroke; stroke: rgba(0, 0, 0, 0); fill: rgb(248, 24, 154);" cx="382.225" cy="24.742" rx="4.107" ry="7.187" transform="matrix(1, 0, 0, 1, 7.105427357601002e-15, 7.105427357601002e-15)"/>
</svg>